<?xml version="1.0" encoding="UTF-8" standalone="no"?>
<!-- Created with Inkscape (http://www.inkscape.org/) -->

<svg
   xmlns:dc="http://purl.org/dc/elements/1.1/"
   xmlns:cc="http://creativecommons.org/ns#"
   xmlns:rdf="http://www.w3.org/1999/02/22-rdf-syntax-ns#"
   xmlns:svg="http://www.w3.org/2000/svg"
   xmlns="http://www.w3.org/2000/svg"
   xmlns:sodipodi="http://sodipodi.sourceforge.net/DTD/sodipodi-0.dtd"
   xmlns:inkscape="http://www.inkscape.org/namespaces/inkscape"
   width="210mm"
   height="297mm"
   viewBox="0 0 744.09448819 1052.3622047"
   id="svg2"
   version="1.1"
   inkscape:version="0.91 r13725"
   sodipodi:docname="drawing.svg">
  <defs
     id="defs4" />
  <sodipodi:namedview
     id="base"
     pagecolor="#ffffff"
     bordercolor="#666666"
     borderopacity="1.0"
     inkscape:pageopacity="0.0"
     inkscape:pageshadow="2"
     inkscape:zoom="0.7"
     inkscape:cx="134.71216"
     inkscape:cy="572.26471"
     inkscape:document-units="px"
     inkscape:current-layer="layer1"
     showgrid="false"
     inkscape:window-width="1473"
     inkscape:window-height="827"
     inkscape:window-x="1114"
     inkscape:window-y="330"
     inkscape:window-maximized="0"
     showguides="false" />
  <metadata
     id="metadata7">
    <rdf:RDF>
      <cc:Work
         rdf:about="">
        <dc:format>image/svg+xml</dc:format>
        <dc:type
           rdf:resource="http://purl.org/dc/dcmitype/StillImage" />
        <dc:title />
      </cc:Work>
    </rdf:RDF>
  </metadata>
  <g
     inkscape:label="Layer 1"
     inkscape:groupmode="layer"
     id="layer1">
    <ellipse
       style="fill:#ff5555;fill-opacity:0.50253811"
       id="path4684"
       cx="370.86002"
       cy="487.67587"
       rx="290.80878"
       ry="398.09033" />
    <path
       style="fill:none;fill-rule:evenodd;stroke:#00ffff;stroke-width:20.20025253px;stroke-linecap:butt;stroke-linejoin:miter;stroke-opacity:1"
       d="M 574.6458,360.45941 C 485.93424,333.51186 426.6276,353.58519 426.6276,353.58519"
       id="path4210-89"
       inkscape:connector-curvature="0" />
    <path
       style="fill:#0000ff;fill-opacity:0.50253811"
       d="m 513.22042,362.31641 a 90.85519,95.162436 0 0 0 -90.85519,95.16155 90.85519,95.162436 0 0 0 90.85519,95.16155 90.85519,95.162436 0 0 0 90.8552,-95.16155 90.85519,95.162436 0 0 0 -90.8552,-95.16155 z m -1.37475,16.04554 a 78.5104,79.526731 0 0 1 78.51026,79.52536 78.5104,79.526731 0 0 1 -78.51026,79.52743 78.5104,79.526731 0 0 1 -78.51025,-79.52743 78.5104,79.526731 0 0 1 78.51025,-79.52536 z"
       id="path4688"
       inkscape:connector-curvature="0" />
    <path
       style="fill:#ff5555;fill-opacity:0.50253811"
       d="M 399.41992 707.40039 C 389.588 708.2235 381.15935 715.40076 371.07142 714.57422 C 362.43951 712.85013 354.41614 707.72754 345.36133 708.51367 C 325.03269 714.42383 306.33176 724.82071 285.94922 730.57227 C 283.53031 732.8478 286.80841 737.28855 289.73242 736.01367 C 324.93302 739.12408 360.45525 742.23131 395.72099 738.24329 C 408.59005 737.01542 421.52547 737.64057 434.42492 737.62549 C 448.53494 737.28157 463.16297 735.35531 475.55149 728.1418 C 477.13351 727.38254 478.77061 725.52504 477.50195 723.77734 C 476.00973 721.04375 472.58001 721.24201 469.93376 720.91857 C 449.41138 716.64496 428.38618 714.69417 408.27371 708.55787 C 405.38575 707.81887 402.41922 707.18167 399.41992 707.40039 z "
       id="path4690"
       inkscape:connector-curvature="0" />
    <path
       style="fill:none;fill-rule:evenodd;stroke:#000000;stroke-width:3.03537178px;stroke-linecap:butt;stroke-linejoin:miter;stroke-opacity:1"
       d="m 304.62718,453.31007 c 11.41357,0 51.36112,-70.59763 119.84261,0"
       id="path4163"
       inkscape:connector-curvature="0" />
    <path
       style="fill:#0000ff;fill-opacity:0.50253811"
       d="m 214.3637,366.35938 a 91.348325,91.371364 0 0 0 -91.34696,91.37169 91.348325,91.371364 0 0 0 91.34696,91.36966 91.348325,91.371364 0 0 0 91.34919,-91.36966 91.348325,91.371364 0 0 0 -91.34919,-91.37169 z m -0.0996,13.42869 c 18.47249,0.01 37.14636,6.33112 52.63668,19.61332 9.2602,7.94016 15.55253,15.71879 20.11519,24.86963 5.85532,11.7434 6.64016,15.69939 6.64016,33.49899 0,18.52634 -0.61556,21.34414 -7.50751,34.30845 -9.17449,17.25792 -25.50984,31.5282 -43.04265,37.60362 -16.59723,5.75122 -41.15463,5.70604 -57.47353,-0.1045 -17.00919,-6.0563 -33.37077,-20.52945 -42.39213,-37.50117 -6.9714,-13.11513 -7.50795,-15.64328 -7.50752,-35.36586 4.1e-4,-18.98498 0.68199,-22.53119 6.42331,-33.3617 14.96645,-28.23285 43.29092,-43.57574 72.108,-43.56078 z"
       id="path4686"
       inkscape:connector-curvature="0" />
    <path
       style="fill:#ffff00;fill-opacity:0.50253811"
       d="m 344.08712,656.5286 c -19.39705,-1.06101 -29.23078,-3.48403 -29.23078,-7.20245 0,-12.47229 22.07148,-159.7252 27.69665,-184.78205 6.3732,-28.38877 18.53976,-58.68916 23.56556,-58.68916 5.88585,0 17.63224,26.06129 23.95025,53.13752 7.22884,30.97959 24.75809,142.47386 27.97768,177.95109 l 2.10825,23.23113 -23.41841,-1.02358 c -12.88014,-0.56299 -36.57228,-1.74309 -52.6492,-2.6225 z"
       id="path4184"
       inkscape:connector-curvature="0" />
    <path
       style="fill:#00ffff;fill-rule:evenodd;stroke-linecap:butt;stroke-linejoin:miter;stroke-opacity:1"
       d="m 171.05721,186.76914 c 44.31015,-1.97905 27.24924,-319.17673 434.96125,-18.42177 407.71204,300.75496 -436.7505,7.78019 -436.7505,7.78019"
       id="path4186"
       inkscape:connector-curvature="0" />
    <path
       style="fill:#00ffff;fill-rule:evenodd;stroke-linecap:butt;stroke-linejoin:miter;stroke-opacity:1"
       d="m 205.86982,127.43439 c 0,0 -158.895513,22.3449 -140.907341,275.58726 C 82.950649,656.26399 205.86982,127.43439 205.86982,127.43439 Z"
       id="path4188"
       inkscape:connector-curvature="0" />
    <path
       style="fill:#ffffff;fill-opacity:0.50253811"
       d="m 475.60352,729.69727 c -12.4926,1.79776 -23.83301,9.13971 -36.71302,8.65811 -27.06987,1.08292 -54.15842,-0.10312 -81.23674,0.053 -23.07025,-0.29858 -46.28105,-0.24281 -69.12439,-3.87481 -1.82013,-0.42951 -3.62103,-0.93488 -5.42781,-1.41633 12.80179,17.85143 34.26432,28.31412 55.93189,29.87383 33.0857,3.54308 66.82474,3.51212 99.53196,-3.11505 11.09527,-3.70136 19.04352,-12.70594 27.58138,-20.20988 4.19723,-3.44152 8.84856,-6.27047 13.54657,-8.96687 -1.19714,-0.79506 -2.66323,-1.1323 -4.08984,-1.00195 z"
       id="path4210-8"
       inkscape:connector-curvature="0" />
    <path
       style="fill:none;fill-rule:evenodd;stroke:#00ffff;stroke-width:20.54356194px;stroke-linecap:butt;stroke-linejoin:miter;stroke-opacity:1"
       d="m 159.91215,357.26004 c 94.7828,-18.0279 154.28995,7.52467 154.28995,7.52467"
       id="path4210"
       inkscape:connector-curvature="0" />
    <path
       style="fill:#ffffff;fill-rule:evenodd;stroke-linecap:butt;stroke-linejoin:miter"
       d="m 449.22752,464.3677 c 41.03247,-79.8674 114.4021,-7.11334 114.4021,-7.11334 z"
       id="path4227-2"
       inkscape:connector-curvature="0" />
    <path
       style="fill:#ffffff;fill-rule:evenodd;stroke-linecap:butt;stroke-linejoin:miter"
       d="m 278.62963,461.93912 c -41.03247,-79.8674 -114.4021,-7.11334 -114.4021,-7.11334 z"
       id="path4227-2-9"
       inkscape:connector-curvature="0" />
    <ellipse
       style="fill:#000000;fill-opacity:0.50253811"
       id="left-eye"
       cx="217.85715"
       cy="438.21936"
       rx="9.2857141"
       ry="7.8571429" />
    <ellipse
       style="fill:#000000;fill-opacity:0.50253811"
       id="right-eye"
       cx="490"
       cy="440.64792"
       rx="9.2857141"
       ry="7.8571429" />
    <path
       style="fill:#de87aa;fill-rule:evenodd;stroke-linecap:butt;stroke-linejoin:miter"
       d="m 312.85715,646.64792 12.85714,7.14286 84.28571,4.28571 12.85715,-2.85714 -57.14286,-22.85715 z"
       id="path4308"
       inkscape:connector-curvature="0" />
    <ellipse
       style="fill:#ff00cc;fill-opacity:0.50253811"
       id="path4270-3"
       cx="199.28574"
       cy="517.3623"
       rx="5.7142854"
       ry="5.7142859" />
    <path
       style="fill:#ff8080;fill-rule:evenodd;stroke-linecap:butt;stroke-linejoin:miter"
       d="m 92.946571,429.91341 c -80.830696,39.10067 -9.86141,114.19804 -9.86141,114.19804 z"
       id="path4227-2-9-2"
       inkscape:connector-curvature="0" />
    <path
       style="fill:#ff8080;fill-rule:evenodd;stroke-linecap:butt;stroke-linejoin:miter"
       d="m 650.25862,404.42705 c 80.8307,39.10067 9.86141,114.19804 9.86141,114.19804 z"
       id="path4227-2-9-2-5"
       inkscape:connector-curvature="0" />
  </g>
</svg>
