<?xml version="1.0" encoding="UTF-8" standalone="no"?>
<!-- Created with Inkscape (http://www.inkscape.org/) -->

<svg
   xmlns:dc="http://purl.org/dc/elements/1.1/"
   xmlns:cc="http://creativecommons.org/ns#"
   xmlns:rdf="http://www.w3.org/1999/02/22-rdf-syntax-ns#"
   xmlns:svg="http://www.w3.org/2000/svg"
   xmlns="http://www.w3.org/2000/svg"
   xmlns:xlink="http://www.w3.org/1999/xlink"
   xmlns:sodipodi="http://sodipodi.sourceforge.net/DTD/sodipodi-0.dtd"
   xmlns:inkscape="http://www.inkscape.org/namespaces/inkscape"
   width="210mm"
   height="297mm"
   viewBox="0 0 744.09448819 1052.3622047"
   id="svg2"
   version="1.1"
   inkscape:version="0.91 r13725"
   sodipodi:docname="drawing_face_edit__1.svg">
  <defs
     id="defs4">
    <linearGradient
       inkscape:collect="always"
       id="linearGradient4170">
      <stop
         style="stop-color:#ff8080;stop-opacity:1;"
         offset="0"
         id="stop4172" />
      <stop
         style="stop-color:#ff8080;stop-opacity:0;"
         offset="1"
         id="stop4174" />
    </linearGradient>
    <linearGradient
       inkscape:collect="always"
       xlink:href="#linearGradient4170"
       id="linearGradient4176"
       x1="211.42857"
       y1="632.36218"
       x2="191.42857"
       y2="652.36218"
       gradientUnits="userSpaceOnUse"
       gradientTransform="matrix(0.99638313,-0.08497441,0.08497441,0.99638313,-75.362343,7.0366)" />
    <linearGradient
       inkscape:collect="always"
       xlink:href="#linearGradient4170"
       id="linearGradient4176-0"
       x1="211.42857"
       y1="632.36218"
       x2="191.42857"
       y2="652.36218"
       gradientUnits="userSpaceOnUse"
       gradientTransform="matrix(-0.99638313,-0.08497441,-0.08497441,0.99638313,807.92034,3.7193309)" />
  </defs>
  <sodipodi:namedview
     id="base"
     pagecolor="#ffffff"
     bordercolor="#666666"
     borderopacity="1.0"
     inkscape:pageopacity="0.0"
     inkscape:pageshadow="2"
     inkscape:zoom="0.7"
     inkscape:cx="328.18898"
     inkscape:cy="572.26471"
     inkscape:document-units="px"
     inkscape:current-layer="layer1"
     showgrid="false"
     inkscape:window-width="1473"
     inkscape:window-height="827"
     inkscape:window-x="1113"
     inkscape:window-y="375"
     inkscape:window-maximized="0"
     showguides="false" />
  <metadata
     id="metadata7">
    <rdf:RDF>
      <cc:Work
         rdf:about="">
        <dc:format>image/svg+xml</dc:format>
        <dc:type
           rdf:resource="http://purl.org/dc/dcmitype/StillImage" />
        <dc:title />
      </cc:Work>
    </rdf:RDF>
  </metadata>
  <g
     inkscape:label="Layer 1"
     inkscape:groupmode="layer"
     id="layer1">
    <path
       style="fill:#ff5555;fill-opacity:0.50253811"
       d="M 367.07617 91.527344 C 297.78319 94.222435 230.64164 128.25131 186.72315 181.78492 C 131.64636 247.45987 97.1169 329.58599 86.377112 414.4736 C 76.426296 490.41462 81.592972 569.03094 106.69648 641.68034 C 122.27247 685.67303 147.85902 725.10639 173.69263 763.64067 C 190.94663 789.30659 209.26937 814.84258 233.23283 834.73158 C 286.2203 878.9519 361.62782 894.72579 427.83008 875.06836 C 464.88551 864.1609 497.56583 840.89113 522.47572 811.64448 C 553.98514 773.40927 582.82082 732.67988 605.31652 688.43991 C 612.86375 673.47103 619.89441 658.20374 625.63808 642.44542 C 638.57035 605.54991 641.25218 566.12893 642.4717 527.35002 C 643.71347 486.73684 643.18163 446.09316 642.25285 405.47985 C 641.12232 371.74497 637.45582 337.65768 626.07637 305.68637 C 610.73454 261.0922 586.03292 219.96151 555.3234 184.27347 C 525.65535 150.26145 488.54547 122.07585 446.12872 106.06211 C 420.94736 96.510547 394.04707 91.227327 367.07617 91.527344 z "
       id="path4684" />
    <path
       style="fill:none;fill-rule:evenodd;stroke:#00ffff;stroke-width:20.20025253px;stroke-linecap:butt;stroke-linejoin:miter;stroke-opacity:1"
       d="M 574.6458,368.45941 C 485.93424,341.51186 426.6276,361.58519 426.6276,361.58519"
       id="path4210-89"
       inkscape:connector-curvature="0" />
    <path
       style="fill:#0000ff;fill-opacity:0.50253811"
       d="m 513.22042,370.31641 a 90.85519,95.162436 0 0 0 -90.85519,95.16155 90.85519,95.162436 0 0 0 90.85519,95.16155 90.85519,95.162436 0 0 0 90.8552,-95.16155 90.85519,95.162436 0 0 0 -90.8552,-95.16155 z m -1.37475,16.04554 a 78.5104,79.526731 0 0 1 78.51026,79.52536 78.5104,79.526731 0 0 1 -78.51026,79.52743 78.5104,79.526731 0 0 1 -78.51025,-79.52743 78.5104,79.526731 0 0 1 78.51025,-79.52536 z"
       id="path4688"
       inkscape:connector-curvature="0" />
    <path
       style="fill:#ff5555;fill-opacity:0.50253811"
       d="m 387.41992,707.40039 c -9.83192,0.82311 -18.26057,8.00037 -28.3485,7.17383 -8.63191,-1.72409 -16.65528,-6.84668 -25.71009,-6.06055 -20.32864,5.91016 -39.02957,16.30704 -59.41211,22.0586 -2.41891,2.27553 0.85919,6.71628 3.7832,5.4414 35.2006,3.11041 70.72283,6.21764 105.98857,2.22962 12.86906,-1.22787 25.80448,-0.60272 38.70393,-0.6178 14.11002,-0.34392 28.73805,-2.27018 41.12657,-9.48369 1.58202,-0.75926 3.21912,-2.61676 1.95046,-4.36446 -1.49222,-2.73359 -4.92194,-2.53533 -7.56819,-2.85877 -20.52238,-4.27361 -41.54758,-6.2244 -61.66005,-12.3607 -2.88796,-0.739 -5.85449,-1.3762 -8.85379,-1.15748 z"
       id="path4690"
       inkscape:connector-curvature="0" />
    <path
       style="fill:none;fill-rule:evenodd;stroke:#000000;stroke-width:3.03537178px;stroke-linecap:butt;stroke-linejoin:miter;stroke-opacity:1"
       d="m 304.62718,461.31007 c 11.41357,0 51.36112,-70.59763 119.84261,0"
       id="path4163"
       inkscape:connector-curvature="0" />
    <path
       style="fill:#0000ff;fill-opacity:0.50253811"
       d="m 214.3637,374.35938 a 91.348325,91.371364 0 0 0 -91.34696,91.37169 91.348325,91.371364 0 0 0 91.34696,91.36966 91.348325,91.371364 0 0 0 91.34919,-91.36966 91.348325,91.371364 0 0 0 -91.34919,-91.37169 z m -0.0996,13.42869 c 18.47249,0.01 37.14636,6.33112 52.63668,19.61332 9.2602,7.94016 15.55253,15.71879 20.11519,24.86963 5.85532,11.7434 6.64016,15.69939 6.64016,33.49899 0,18.52634 -0.61556,21.34414 -7.50751,34.30845 -9.17449,17.25792 -25.50984,31.5282 -43.04265,37.60362 -16.59723,5.75122 -41.15463,5.70604 -57.47353,-0.1045 -17.00919,-6.0563 -33.37077,-20.52945 -42.39213,-37.50117 -6.9714,-13.11513 -7.50795,-15.64328 -7.50752,-35.36586 4.1e-4,-18.98498 0.68199,-22.53119 6.42331,-33.3617 14.96645,-28.23285 43.29092,-43.57574 72.108,-43.56078 z"
       id="path4686"
       inkscape:connector-curvature="0" />
    <path
       style="fill:#ffff00;fill-opacity:0.50253811"
       d="m 344.08712,656.5286 c -19.39705,-1.06101 -29.23078,-3.48403 -29.23078,-7.20245 0,-12.47229 22.07148,-159.7252 27.69665,-184.78205 6.3732,-28.38877 18.53976,-58.68916 23.56556,-58.68916 5.88585,0 17.63224,26.06129 23.95025,53.13752 7.22884,30.97959 24.75809,142.47386 27.97768,177.95109 l 2.10825,23.23113 -23.41841,-1.02358 c -12.88014,-0.56299 -36.57228,-1.74309 -52.6492,-2.6225 z"
       id="path4184"
       inkscape:connector-curvature="0" />
    <path
       style="fill:#00ffff;fill-rule:evenodd;stroke-linecap:butt;stroke-linejoin:miter;stroke-opacity:1"
       d="m 171.05721,186.76914 c 44.31015,-1.97905 27.24924,-319.17673 434.96125,-18.42177 407.71204,300.75496 -436.7505,7.78019 -436.7505,7.78019"
       id="path4186"
       inkscape:connector-curvature="0" />
    <path
       style="fill:#00ffff;fill-rule:evenodd;stroke-linecap:butt;stroke-linejoin:miter;stroke-opacity:1"
       d="m 205.86982,127.43439 c 0,0 -158.895513,22.3449 -140.907341,275.58726 C 82.950649,656.26399 205.86982,127.43439 205.86982,127.43439 Z"
       id="path4188"
       inkscape:connector-curvature="0" />
    <path
       style="fill:#ffd5d5;fill-opacity:0.50253811"
       d="m 463.60352,729.69727 c -12.4926,1.79776 -23.83301,9.13971 -36.71302,8.65811 -27.06987,1.08292 -54.15842,-0.10312 -81.23674,0.053 -23.07025,-0.29858 -46.28105,-0.24281 -69.12439,-3.87481 -1.82013,-0.42951 -3.62103,-0.93488 -5.42781,-1.41633 12.80179,17.85143 34.26432,28.31412 55.93189,29.87383 33.0857,3.54308 66.82474,3.51212 99.53196,-3.11505 11.09527,-3.70136 19.04352,-12.70594 27.58138,-20.20988 4.19723,-3.44152 8.84856,-6.27047 13.54657,-8.96687 -1.19714,-0.79506 -2.66323,-1.1323 -4.08984,-1.00195 z"
       id="path4210-8"
       inkscape:connector-curvature="0" />
    <path
       style="fill:none;fill-rule:evenodd;stroke:#00ffff;stroke-width:20.54356194px;stroke-linecap:butt;stroke-linejoin:miter;stroke-opacity:1"
       d="m 159.91215,365.26004 c 94.7828,-18.0279 154.28995,7.52467 154.28995,7.52467"
       id="path4210"
       inkscape:connector-curvature="0" />
    <path
       style="fill:#ffffff;fill-rule:evenodd;stroke-linecap:butt;stroke-linejoin:miter"
       d="m 449.22752,472.3677 c 41.03247,-79.8674 114.4021,-7.11334 114.4021,-7.11334 z"
       id="path4227-2"
       inkscape:connector-curvature="0" />
    <path
       style="fill:#ffffff;fill-rule:evenodd;stroke-linecap:butt;stroke-linejoin:miter"
       d="m 278.62963,469.93912 c -41.03247,-79.8674 -114.4021,-7.11334 -114.4021,-7.11334 z"
       id="path4227-2-9"
       inkscape:connector-curvature="0" />
    <ellipse
       style="fill:#000000;fill-opacity:0.50253811"
       id="left-eye"
       cx="217.85715"
       cy="446.21936"
       rx="9.2857141"
       ry="7.8571429" />
    <ellipse
       style="fill:#000000;fill-opacity:0.50253811"
       id="right-eye"
       cx="490"
       cy="448.64792"
       rx="9.2857141"
       ry="7.8571429" />
    <path
       style="fill:#de87aa;fill-rule:evenodd;stroke-linecap:butt;stroke-linejoin:miter"
       d="m 312.85715,646.64792 12.85714,7.14286 84.28571,4.28571 12.85715,-2.85714 -57.14286,-22.85715 z"
       id="path4308"
       inkscape:connector-curvature="0" />
    <ellipse
       style="fill:#ff00cc;fill-opacity:0.50253811"
       id="path4270-3"
       cx="199.28574"
       cy="525.3623"
       rx="5.7142854"
       ry="5.7142859" />
    <path
       style="fill:#ff8080;fill-rule:evenodd;stroke-linecap:butt;stroke-linejoin:miter"
       d="m 94.946571,433.91341 c -80.830696,39.10067 -9.86141,114.19804 -9.86141,114.19804 z"
       id="path4227-2-9-2"
       inkscape:connector-curvature="0" />
    <path
       style="fill:#ff8080;fill-rule:evenodd;stroke-linecap:butt;stroke-linejoin:miter"
       d="m 640.59216,425.21803 c 51.67048,46.96429 -1.06184,114.61224 -1.06184,114.61224 z"
       id="path4227-2-9-2-5"
       inkscape:connector-curvature="0" />
    <path
       style="opacity:0.3;fill:url(#linearGradient4176);fill-opacity:1;fill-rule:evenodd;stroke-linecap:butt;stroke-linejoin:miter"
       d="M 97.977349,573.5756 C 250.9885,619.31041 238.31105,689.21192 238.31105,689.21192"
       id="path4152"
       inkscape:connector-curvature="0" />
    <path
       style="opacity:0.3;fill:url(#linearGradient4176-0);fill-opacity:1;fill-rule:evenodd;stroke-linecap:butt;stroke-linejoin:miter"
       d="M 634.58065,570.25833 C 481.5695,615.99314 494.24695,685.89465 494.24695,685.89465"
       id="path4152-6"
       inkscape:connector-curvature="0" />
    <path
       style="fill:#00ffff;fill-rule:evenodd;stroke-linecap:butt;stroke-linejoin:miter;stroke-opacity:1"
       d="m 608.52418,212.69473 c 0,0 73.62991,23.85201 44.89624,189.71892 -28.73367,165.86691 -44.89624,-189.71892 -44.89624,-189.71892 z"
       id="path4188-1"
       inkscape:connector-curvature="0" />
  </g>
</svg>
