<?xml version="1.0" encoding="iso-8859-1"?>
<!-- Generator: Adobe Illustrator 19.0.0, SVG Export Plug-In . SVG Version: 6.00 Build 0)  -->
<svg version="1.1" id="Layer_1" xmlns="http://www.w3.org/2000/svg" xmlns:xlink="http://www.w3.org/1999/xlink" x="0px" y="0px"
	 viewBox="0 0 503.2 503.2" style="enable-background:new 0 0 503.2 503.2;" xml:space="preserve">
<path style="fill:#FF6600;" d="M397.6,208.8c49.6,0,89.6,34.4,89.6,76.8s-40,76.8-89.6,76.8H218.4V143.2c15.2-5.6,31.2-8,48-8
	c52.8,0,100,27.2,120.8,68.8c1.6,3.2,4,4.8,7.2,4.8h1.6C396.8,208.8,397.6,208.8,397.6,208.8z"/>
<path style="fill:#FF7D00;" d="M480,315.2c-12.8-29.6-45.6-50.4-84-50.4c-0.8,0-1.6,0-1.6,0h-1.6c-3.2,0-6.4-1.6-7.2-4.8
	c-20.8-41.6-68-68.8-120.8-68.8c-16,0-31.2,2.4-46.4,7.2v164h179.2C435.2,362.4,466.4,343.2,480,315.2z"/>
<g>
	<path style="fill:#42210B;" d="M266.4,135.2c-16.8,0-32.8,2.4-48,8v219.2h179.2c49.6,0,89.6-34.4,89.6-76.8s-40-76.8-89.6-76.8
		c-0.8,0-0.8,0-1.6,0h-1.6c-3.2,0-6.4-1.6-7.2-4.8C366.4,162.4,319.2,135.2,266.4,135.2z M202.4,370.4V137.6c0-3.2,2.4-6.4,4.8-7.2
		c18.4-7.2,38.4-11.2,59.2-11.2c56.8,0,108,28.8,132.8,73.6c57.6,0.8,104,41.6,104,92.8s-47.2,92.8-105.6,92.8H210.4
		c-2.4,0-4-0.8-5.6-2.4C203.2,374.4,202.4,372.8,202.4,370.4z"/>
	<path style="fill:#42210B;" d="M176,147.2V376c0,4-3.2,8-8,8c-4,0-8-4-8-8V147.2c0-4.8,4-8,8-8C172.8,139.2,176,142.4,176,147.2z"
		/>
	<path style="fill:#42210B;" d="M136,177.6v197.6c0,4-3.2,8-8,8c-4,0-8-4-8-8V177.6c0-4.8,4-8,8-8C132.8,169.6,136,173.6,136,177.6z
		"/>
	<path style="fill:#42210B;" d="M96,160.8V368c0,4-3.2,8-8,8s-8-4-8-8V160.8c0-4.8,3.2-8,8-8S96,156,96,160.8z"/>
	<path style="fill:#42210B;" d="M56,199.2v148c0,4.8-3.2,8-8,8s-8-3.2-8-8v-148c0-4.8,3.2-8,8-8S56,195.2,56,199.2z"/>
	<path style="fill:#42210B;" d="M16,228.8v100c0,4-3.2,8-8,8s-8-4-8-8v-100c0-4.8,3.2-8,8-8S16,224,16,228.8z"/>
</g>
<g>
</g>
<g>
</g>
<g>
</g>
<g>
</g>
<g>
</g>
<g>
</g>
<g>
</g>
<g>
</g>
<g>
</g>
<g>
</g>
<g>
</g>
<g>
</g>
<g>
</g>
<g>
</g>
<g>
</g>
</svg>
